G04 PTK 0.3.1*
%TF.FileFunction,Copper,L1,Top,Signal*%
%MOMM*%
%FSLAX43Y43*%
G75*
G01*
%LPD*%
G36*
X27000Y20000D02*
Y27000D01*
X20000D01*
Y37000D01*
X30000D01*
Y181000D01*
X64000D01*
Y257000D01*
X100000D01*
Y306000D01*
X50000D01*
Y335000D01*
X43000D01*
Y341000D01*
X55000D01*
Y310000D01*
X133000D01*
Y350000D01*
X175000D01*
Y332000D01*
X233000D01*
Y380000D01*
X366000D01*
Y360000D01*
X360000D01*
Y375000D01*
X238000D01*
Y327000D01*
X171000D01*
Y345000D01*
X137000D01*
Y306000D01*
X122000D01*
Y257000D01*
X192000D01*
Y320000D01*
X275000D01*
Y358000D01*
X305000D01*
Y315000D01*
X309000D01*
Y355000D01*
X317000D01*
Y310000D01*
X301000D01*
Y354000D01*
X280000D01*
Y315000D01*
X200000D01*
Y252000D01*
X70000D01*
Y183000D01*
X173000D01*
Y159000D01*
X50000D01*
Y115000D01*
X44000D01*
Y165000D01*
X168000D01*
Y170000D01*
X38000D01*
Y37000D01*
X48000D01*
Y20000D01*
X27000D01*
G37*
G36*
X52000Y27000D02*
Y37000D01*
X56000D01*
Y45000D01*
X43000D01*
Y110000D01*
X56000D01*
Y155000D01*
X177000D01*
Y189000D01*
X114000D01*
Y195000D01*
X92000D01*
Y203000D01*
X122000D01*
Y193000D01*
X153000D01*
Y247000D01*
X214000D01*
Y305000D01*
X205000D01*
Y311000D01*
X255000D01*
Y305000D01*
X220000D01*
Y243000D01*
X160000D01*
Y193000D01*
X177000D01*
Y220000D01*
X183000D01*
Y156000D01*
X236000D01*
Y116000D01*
X252000D01*
Y156000D01*
X380000D01*
Y204000D01*
X435000D01*
Y277000D01*
X389000D01*
Y315000D01*
X381000D01*
Y323000D01*
X397000D01*
Y285000D01*
X442000D01*
Y268000D01*
X493000D01*
Y252000D01*
X485000D01*
Y262000D01*
X442000D01*
Y197000D01*
X387000D01*
Y149000D01*
X256000D01*
Y110000D01*
X230000D01*
Y129000D01*
X201000D01*
Y135000D01*
X230000D01*
Y149000D01*
X64000D01*
Y105000D01*
X48000D01*
Y51000D01*
X64000D01*
Y37000D01*
X73000D01*
Y27000D01*
X52000D01*
G37*
G36*
X77000Y27000D02*
Y55000D01*
X52000D01*
Y100000D01*
X69000D01*
Y145000D01*
X225000D01*
Y139000D01*
X191000D01*
Y140000D01*
X90000D01*
Y139000D01*
X75000D01*
Y95000D01*
X56000D01*
Y60000D01*
X83000D01*
Y37000D01*
X98000D01*
Y27000D01*
X77000D01*
G37*
G36*
X102000Y27000D02*
Y37000D01*
X123000D01*
Y27000D01*
X102000D01*
G37*
G36*
X60000Y66000D02*
Y90000D01*
X124000D01*
Y66000D01*
X60000D01*
G37*
G36*
X146000Y41000D02*
Y95000D01*
X174000D01*
Y41000D01*
X146000D01*
G37*
G36*
X127000Y27000D02*
Y37000D01*
X128000D01*
Y129000D01*
X124000D01*
Y135000D01*
X186000D01*
Y129000D01*
X132000D01*
Y37000D01*
X148000D01*
Y27000D01*
X127000D01*
G37*
G36*
X152000Y27000D02*
Y37000D01*
X173000D01*
Y27000D01*
X152000D01*
G37*
G36*
X177000Y27000D02*
Y37000D01*
X187000D01*
Y110000D01*
X160000D01*
Y125000D01*
X166000D01*
Y115000D01*
X192000D01*
Y45000D01*
X344000D01*
Y60000D01*
X350000D01*
Y47000D01*
X378000D01*
Y60000D01*
X384000D01*
Y47000D01*
X410000D01*
Y110000D01*
X430000D01*
Y145000D01*
X436000D01*
Y105000D01*
X415000D01*
Y47000D01*
X498000D01*
Y145000D01*
X537000D01*
Y173000D01*
X543000D01*
Y140000D01*
X504000D01*
Y41000D01*
X380000D01*
Y43000D01*
X350000D01*
Y41000D01*
X210000D01*
Y37000D01*
X223000D01*
Y27000D01*
X202000D01*
Y41000D01*
X198000D01*
Y27000D01*
X177000D01*
G37*
G36*
X227000Y27000D02*
Y37000D01*
X248000D01*
Y27000D01*
X227000D01*
G37*
G36*
X252000Y20000D02*
Y37000D01*
X273000D01*
Y20000D01*
X252000D01*
G37*
G36*
X197000Y63000D02*
Y87000D01*
X261000D01*
Y63000D01*
X197000D01*
G37*
G36*
X281000Y49000D02*
Y103000D01*
X309000D01*
Y49000D01*
X281000D01*
G37*
G36*
X280000Y107000D02*
Y137000D01*
X305000D01*
Y132000D01*
X325000D01*
Y145000D01*
X391000D01*
Y193000D01*
X452000D01*
Y258000D01*
X468000D01*
Y252000D01*
X458000D01*
Y189000D01*
X397000D01*
Y141000D01*
X330000D01*
Y127000D01*
X300000D01*
Y133000D01*
X285000D01*
Y111000D01*
X336000D01*
Y50000D01*
X330000D01*
Y105000D01*
X280000Y107000D01*
G37*
G36*
X277000Y27000D02*
Y37000D01*
X298000D01*
Y27000D01*
X277000D01*
G37*
G36*
X302000Y27000D02*
Y37000D01*
X323000D01*
Y27000D01*
X302000D01*
G37*
G36*
X327000Y27000D02*
Y37000D01*
X348000D01*
Y27000D01*
X327000D01*
G37*
G36*
X352000Y27000D02*
Y37000D01*
X373000D01*
Y27000D01*
X352000D01*
G37*
G36*
X290000Y115000D02*
Y129000D01*
X296000D01*
Y120000D01*
X340000D01*
Y135000D01*
X353000D01*
Y129000D01*
X346000D01*
Y75000D01*
X362000D01*
Y55000D01*
X355000D01*
Y70000D01*
X340000D01*
Y115000D01*
X290000D01*
G37*
G36*
X377000Y27000D02*
Y37000D01*
X398000D01*
Y27000D01*
X377000D01*
G37*
G36*
X402000Y27000D02*
Y37000D01*
X423000D01*
Y27000D01*
X402000D01*
G37*
G36*
X430000Y55000D02*
Y95000D01*
X467000D01*
Y149000D01*
X430000D01*
Y155000D01*
X467000D01*
Y173000D01*
X473000D01*
Y59000D01*
X467000D01*
Y90000D01*
X435000D01*
Y61000D01*
X443000D01*
Y55000D01*
X430000D01*
G37*
G36*
X450000Y51000D02*
Y75000D01*
X440000D01*
Y81000D01*
X456000D01*
Y57000D01*
X463000D01*
Y55000D01*
X488000D01*
Y155000D01*
X513000D01*
Y149000D01*
X494000D01*
Y51000D01*
X450000D01*
G37*
G36*
X377000Y90000D02*
Y107000D01*
X383000D01*
Y95000D01*
X400000D01*
Y120000D01*
X419000D01*
Y163000D01*
X455000D01*
Y173000D01*
X461000D01*
Y159000D01*
X425000D01*
Y114000D01*
X405000D01*
Y90000D01*
X377000D01*
G37*
G36*
X427000Y27000D02*
Y37000D01*
X448000D01*
Y27000D01*
X427000D01*
G37*
G36*
X452000Y27000D02*
Y37000D01*
X473000D01*
Y27000D01*
X452000D01*
G37*
G36*
X477000Y27000D02*
Y37000D01*
X498000D01*
Y27000D01*
X477000D01*
G37*
G36*
X477000Y59000D02*
Y178000D01*
X402000D01*
Y184000D01*
X450000D01*
Y182000D01*
X483000D01*
Y59000D01*
X477000D01*
G37*
G36*
X525000Y109000D02*
Y117000D01*
X533000D01*
Y109000D01*
X525000D01*
G37*
G36*
X527000Y27000D02*
Y37000D01*
X542000D01*
Y45000D01*
X535000D01*
Y60000D01*
X517000D01*
Y67000D01*
X540000D01*
Y50000D01*
X548000D01*
Y27000D01*
X527000D01*
G37*
G36*
X552000Y27000D02*
Y37000D01*
X573000D01*
Y27000D01*
X552000D01*
G37*
G36*
X502000Y20000D02*
Y37000D01*
X508000D01*
Y93000D01*
X537000D01*
Y130000D01*
X547000D01*
Y173000D01*
X553000D01*
Y125000D01*
X543000D01*
Y87000D01*
X512000D01*
Y37000D01*
X523000D01*
Y20000D01*
X502000D01*
G37*
G36*
X487000Y177000D02*
Y186000D01*
X473000D01*
Y193000D01*
X493000D01*
Y181000D01*
X573000D01*
Y335000D01*
X581000D01*
Y177000D01*
X563000D01*
Y167000D01*
X557000D01*
Y177000D01*
X487000D01*
G37*
G36*
X510000Y200000D02*
Y185000D01*
X504000D01*
Y196000D01*
X468000D01*
Y186000D01*
X462000D01*
Y200000D01*
X510000D01*
G37*
G36*
X81000Y207000D02*
Y192000D01*
X75000D01*
Y213000D01*
X132000D01*
Y203000D01*
X148000D01*
Y197000D01*
X126000D01*
Y207000D01*
X81000D01*
G37*
G36*
X171000Y233000D02*
Y197000D01*
X165000D01*
Y238000D01*
X225000D01*
Y295000D01*
X277000D01*
Y311000D01*
X283000D01*
Y289000D01*
X231000D01*
Y233000D01*
X192000D01*
Y178000D01*
X196000D01*
Y200000D01*
X240000D01*
Y275000D01*
X246000D01*
Y195000D01*
X200000D01*
Y172000D01*
X187000D01*
Y233000D01*
X171000D01*
G37*
G36*
X340000Y209000D02*
Y270000D01*
X346000D01*
Y215000D01*
X410000D01*
Y259000D01*
X361000D01*
Y326000D01*
X370000D01*
Y335000D01*
X376000D01*
Y318000D01*
X366000D01*
Y265000D01*
X430000D01*
Y257000D01*
X415000D01*
Y209000D01*
X340000D01*
G37*
G36*
X497000Y205000D02*
Y260000D01*
X513000D01*
Y254000D01*
X502000D01*
Y211000D01*
X544000D01*
Y315000D01*
X555000D01*
Y335000D01*
X565000D01*
Y310000D01*
X550000D01*
Y205000D01*
X497000D01*
G37*
G36*
X513000Y237000D02*
Y227000D01*
X507000D01*
Y243000D01*
X517000D01*
Y278000D01*
X523000D01*
Y237000D01*
X513000D01*
G37*
G36*
X472000Y273000D02*
Y327000D01*
X500000D01*
Y273000D01*
X472000D01*
G37*
G36*
X415000Y298000D02*
Y362000D01*
X439000D01*
Y298000D01*
X415000D01*
G37*
G36*
X347000Y305000D02*
Y300000D01*
X316000D01*
Y177000D01*
X376000D01*
Y170000D01*
X311000D01*
Y175000D01*
X213000D01*
Y166000D01*
X247000D01*
Y121000D01*
X241000D01*
Y160000D01*
X205000D01*
Y188000D01*
X311000D01*
Y300000D01*
X288000D01*
Y350000D01*
X296000D01*
Y305000D01*
X325000D01*
Y365000D01*
X248000D01*
Y345000D01*
X242000D01*
Y370000D01*
X355000D01*
Y355000D01*
X390000D01*
Y370000D01*
X455000D01*
Y340000D01*
X475000D01*
Y360000D01*
X481000D01*
Y335000D01*
X450000D01*
Y366000D01*
X395000D01*
Y350000D01*
X351000D01*
Y365000D01*
X347000D01*
Y310000D01*
X352000D01*
Y345000D01*
X365000D01*
Y335000D01*
X357000D01*
Y305000D01*
X347000D01*
G37*
G36*
X143000Y273000D02*
Y337000D01*
X167000D01*
Y273000D01*
X143000D01*
G37*
G36*
X75000Y326000D02*
Y354000D01*
X129000D01*
Y326000D01*
X75000D01*
G37*
G36*
X48000Y453000D02*
Y443000D01*
X35000D01*
Y385000D01*
X39000D01*
Y439000D01*
X52000D01*
Y453000D01*
X73000D01*
Y443000D01*
X58000D01*
Y435000D01*
X45000D01*
Y380000D01*
X30000D01*
Y443000D01*
X27000D01*
Y453000D01*
X48000D01*
G37*
G36*
X98000Y453000D02*
Y443000D01*
X83000D01*
Y425000D01*
X53000D01*
Y370000D01*
X31000D01*
Y198000D01*
X60000D01*
Y192000D01*
X27000D01*
Y375000D01*
X49000D01*
Y430000D01*
X77000D01*
Y453000D01*
X98000D01*
G37*
G36*
X123000Y453000D02*
Y443000D01*
X108000D01*
Y415000D01*
X61000D01*
Y385000D01*
X200000D01*
Y390000D01*
X385000D01*
Y378000D01*
X466000D01*
Y354000D01*
X460000D01*
Y374000D01*
X385000D01*
Y360000D01*
X379000D01*
Y385000D01*
X205000D01*
Y339000D01*
X179000D01*
Y345000D01*
X200000D01*
Y380000D01*
X61000D01*
Y360000D01*
X39000D01*
Y325000D01*
X41000D01*
Y309000D01*
X35000D01*
Y365000D01*
X57000D01*
Y420000D01*
X102000D01*
Y453000D01*
X123000D01*
G37*
G36*
X148000Y460000D02*
Y443000D01*
X127000D01*
Y460000D01*
X148000D01*
G37*
G36*
X480000Y365000D02*
Y375000D01*
X490000D01*
Y365000D01*
X480000D01*
G37*
G36*
X173000Y453000D02*
Y443000D01*
X152000D01*
Y453000D01*
X173000D01*
G37*
G36*
X198000Y453000D02*
Y425000D01*
X240000D01*
Y405000D01*
X85000D01*
Y400000D01*
X65000D01*
Y406000D01*
X80000D01*
Y411000D01*
X174000D01*
Y416000D01*
X235000D01*
Y420000D01*
X192000D01*
Y430000D01*
X128000D01*
Y436000D01*
X192000D01*
Y443000D01*
X177000D01*
Y453000D01*
X198000D01*
G37*
G36*
X43000Y350000D02*
Y356000D01*
X65000D01*
Y375000D01*
X185000D01*
Y355000D01*
X179000D01*
Y370000D01*
X70000D01*
Y350000D01*
X43000D01*
G37*
G36*
X223000Y453000D02*
Y443000D01*
X202000D01*
Y453000D01*
X223000D01*
G37*
G36*
X248000Y453000D02*
Y443000D01*
X228000D01*
Y453000D01*
X248000D01*
G37*
G36*
X273000Y453000D02*
Y443000D01*
X252000D01*
Y453000D01*
X273000D01*
G37*
G36*
X298000Y453000D02*
Y443000D01*
X277000D01*
Y453000D01*
X298000D01*
G37*
G36*
X348000Y453000D02*
Y443000D01*
X327000D01*
Y453000D01*
X348000D01*
G37*
G36*
X373000Y453000D02*
Y443000D01*
X352000D01*
Y453000D01*
X373000D01*
G37*
G36*
X398000Y460000D02*
Y443000D01*
X377000D01*
Y460000D01*
X398000D01*
G37*
G36*
X448000Y453000D02*
Y439000D01*
X467000D01*
Y443000D01*
X452000D01*
Y453000D01*
X473000D01*
Y415000D01*
X535000D01*
Y391000D01*
X415000D01*
Y400000D01*
X255000D01*
Y395000D01*
X195000D01*
Y390000D01*
X65000D01*
Y396000D01*
X190000D01*
Y400000D01*
X250000D01*
Y405000D01*
X420000D01*
Y397000D01*
X529000D01*
Y411000D01*
X467000D01*
Y433000D01*
X442000D01*
Y443000D01*
X427000D01*
Y453000D01*
X448000D01*
G37*
G36*
X501000Y387000D02*
Y354000D01*
X495000D01*
Y382000D01*
X394000D01*
Y395000D01*
X400000D01*
Y387000D01*
X501000D01*
G37*
G36*
X498000Y453000D02*
Y423000D01*
X543000D01*
Y355000D01*
X516000D01*
Y290000D01*
X535000D01*
Y272000D01*
X529000D01*
Y285000D01*
X510000D01*
Y360000D01*
X539000D01*
Y419000D01*
X492000D01*
Y443000D01*
X477000D01*
Y453000D01*
X498000D01*
G37*
G36*
X523000Y453000D02*
Y431000D01*
X551000D01*
Y370000D01*
X555000D01*
Y360000D01*
X547000D01*
Y427000D01*
X517000D01*
Y443000D01*
X502000D01*
Y453000D01*
X523000D01*
G37*
G36*
X548000Y453000D02*
Y439000D01*
X561000D01*
Y385000D01*
X565000D01*
Y443000D01*
X552000D01*
Y453000D01*
X573000D01*
Y443000D01*
X570000D01*
Y380000D01*
X555000D01*
Y435000D01*
X542000D01*
Y443000D01*
X527000D01*
Y453000D01*
X548000D01*
G37*
G36*
X90000Y45000D02*
Y55000D01*
X100000D01*
Y45000D01*
X90000D01*
G37*
G36*
X367000Y55000D02*
Y80000D01*
X355000D01*
Y120000D01*
X378000D01*
Y114000D01*
X360000D01*
Y85000D01*
X374000D01*
Y55000D01*
X367000D01*
G37*
G36*
X323000Y453000D02*
Y436000D01*
X350000D01*
Y415000D01*
X415000D01*
Y409000D01*
X344000D01*
Y429000D01*
X207000D01*
Y436000D01*
X314000D01*
Y443000D01*
X302000D01*
Y453000D01*
X323000D01*
G37*
G36*
X423000Y453000D02*
Y443000D01*
X408000D01*
Y434000D01*
X365000D01*
Y430000D01*
X430000D01*
Y407000D01*
X525000D01*
Y401000D01*
X424000D01*
Y419000D01*
X360000D01*
Y439000D01*
X402000D01*
Y453000D01*
X423000D01*
G37*
G36*
X265000Y128000D02*
Y145000D01*
X317000D01*
Y137000D01*
X311000D01*
Y141000D01*
X269000D01*
Y128000D01*
X275000D01*
Y122000D01*
X269000D01*
Y49000D01*
X255000D01*
Y55000D01*
X265000D01*
Y122000D01*
X261000D01*
Y128000D01*
X265000D01*
G37*
G36*
X357000Y129000D02*
Y135000D01*
X405000D01*
Y173000D01*
X445000D01*
Y167000D01*
X410000D01*
Y129000D01*
X357000D01*
G37*
G36*
X0000Y0000D02*
Y20000D01*
X2000D01*
Y2000D01*
X20000D01*
Y0000D01*
X0000D01*
G37*
G36*
X0000Y460000D02*
Y480000D01*
X20000D01*
Y478000D01*
X2000D01*
Y460000D01*
X0000D01*
G37*
G36*
X598000Y460000D02*
Y478000D01*
X580000D01*
Y480000D01*
X600000D01*
Y460000D01*
X598000D01*
G37*
G36*
X580000Y0000D02*
Y2000D01*
X598000D01*
Y20000D01*
X600000D01*
Y0000D01*
X580000D01*
G37*
G36*
X293000Y12000D02*
Y20000D01*
X308000D01*
Y12000D01*
X305000D01*
Y17000D01*
X296000D01*
Y12000D01*
X293000D01*
G37*
G36*
X293000Y5000D02*
Y12000D01*
X296000D01*
Y8000D01*
X305000D01*
Y12000D01*
X308000D01*
Y5000D01*
X293000D01*
Y5000D01*
G37*
M02*